<?xml version="1.0" encoding="utf-8"?>
<!-- Generator: Adobe Illustrator 22.0.1, SVG Export Plug-In . SVG Version: 6.00 Build 0)  -->
<svg version="1.1" id="Layer_1" xmlns="http://www.w3.org/2000/svg" xmlns:xlink="http://www.w3.org/1999/xlink" x="0px" y="0px"
	 viewBox="0 0 357.8 405" style="enable-background:new 0 0 357.8 405;" xml:space="preserve">
<style type="text/css">
	.st0{fill:#D9D8D6;stroke:#FFFFFF;stroke-miterlimit:10;}
	.st1{fill:none;stroke:#D9D8D6;stroke-width:5;stroke-miterlimit:10;}
	.st2{fill:none;stroke:#D9D8D6;stroke-width:3;stroke-miterlimit:10;}
	.st3{fill:#D9D8D6;}
	.st4{fill:#D9D8D6;stroke:#008BB5;stroke-width:5;stroke-miterlimit:10;}
	.st5{fill:none;stroke:#D9D8D6;stroke-width:8;stroke-miterlimit:10;}
	.st6{fill:none;stroke:#D9D8D6;stroke-width:2;stroke-miterlimit:10;stroke-dasharray:3;}
	.st7{fill:#FFFFFF;stroke:#008BB5;stroke-width:5;stroke-miterlimit:10;}
	.st8{fill:none;stroke:#D9D8D6;stroke-width:2;stroke-miterlimit:10;}
</style>
<g>
	<path class="st0" d="M264.6,353c12,6.8,27.3,2.6,34.1-9.4c6.8-12,2.6-27.3-9.4-34.1c-12-6.8-27.3-2.6-34.1,9.4
		C248.3,330.9,252.6,346.2,264.6,353z M283.4,320.3c6.1,3.5,8.2,11.2,4.8,17.3c-3.5,6.1-11.2,8.2-17.3,4.8
		c-6.1-3.5-8.2-11.2-4.8-17.3C269.5,319,277.3,316.8,283.4,320.3z"/>
	<line class="st1" x1="271.9" y1="353.7" x2="262.5" y2="379"/>
	<line class="st1" x1="238.6" y1="305.9" x2="261.2" y2="320.7"/>
	<line class="st2" x1="259.4" y1="337.8" x2="39.6" y2="405.2"/>
	<line class="st1" x1="321.4" y1="348.1" x2="295.8" y2="339.4"/>
	<line class="st1" x1="282.1" y1="316.5" x2="290" y2="288.4"/>
	<circle class="st3" cx="237.3" cy="305.6" r="9.9"/>
	<circle class="st3" cx="241.4" cy="287.6" r="3.6"/>
	<circle class="st3" cx="309.2" cy="274.4" r="3.6"/>
	<circle class="st3" cx="283" cy="371.2" r="3.6"/>
	<circle class="st3" cx="262" cy="380.4" r="11.3"/>
	<circle class="st3" cx="326" cy="348.6" r="14.9"/>
	<circle class="st3" cx="290.6" cy="285.7" r="13"/>
	<path class="st4" d="M290.6,285.7"/>
</g>
<path class="st5" d="M262.9,196.8c6.8-12,2.6-27.3-9.4-34.1c-12-6.8-27.3-2.6-34.1,9.4c-6.8,12-2.6,27.3,9.4,34.1
	C240.9,213.1,256.1,208.9,262.9,196.8z M252,190.6c-3.5,6.1-11.2,8.2-17.3,4.8c-6.1-3.5-8.2-11.2-4.8-17.3
	c3.5-6.1,11.2-8.2,17.3-4.8C253.4,176.8,255.5,184.5,252,190.6z"/>
<line class="st1" x1="224.5" y1="200.3" x2="207.6" y2="221.4"/>
<line class="st1" x1="282.6" y1="204.4" x2="263.8" y2="195.3"/>
<line class="st2" x1="247.8" y1="208.6" x2="290.6" y2="285.7"/>
<line class="st1" x1="203.9" y1="155" x2="221" y2="170.6"/>
<line class="st1" x1="257.2" y1="167.8" x2="271.2" y2="151.3"/>
<circle class="st3" cx="283.5" cy="205.3" r="9.9"/>
<circle class="st3" cx="131.2" cy="304.3" r="6"/>
<circle class="st3" cx="143.8" cy="253.1" r="6"/>
<circle class="st3" cx="175.5" cy="280.7" r="9.9"/>
<circle class="st3" cx="296.9" cy="192.5" r="3.6"/>
<circle class="st3" cx="273.4" cy="127.6" r="3.6"/>
<circle class="st3" cx="203.7" cy="199.8" r="3.6"/>
<circle class="st3" cx="206.7" cy="222.5" r="11.3"/>
<circle class="st3" cx="201.1" cy="151.3" r="14.9"/>
<circle class="st3" cx="273.2" cy="149.4" r="13"/>
<path class="st4" d="M273.2,149.4"/>
<polyline class="st2" points="208.5,224.2 237.3,305.6 180.9,283.5 "/>
<circle class="st6" cx="175" cy="281.6" r="26"/>
<line class="st2" x1="175" y1="281.6" x2="134.2" y2="302.7"/>
<line class="st2" x1="171.2" y1="275.5" x2="144.6" y2="253.6"/>
<path class="st0" d="M78.6,84.6c10.7-8.7,12.3-24.5,3.5-35.2C73.4,38.7,57.7,37.1,47,45.9c-10.7,8.7-12.3,24.5-3.5,35.2
	C52.2,91.8,68,93.3,78.6,84.6z M54.9,55.2c5.4-4.4,13.4-3.6,17.9,1.8s3.6,13.4-1.8,17.9c-5.4,4.4-13.4,3.6-17.9-1.8
	S49.5,59.7,54.9,55.2z"/>
<line class="st1" x1="25.3" y1="91.8" x2="47.3" y2="76.1"/>
<line class="st2" x1="68.4" y1="82.6" x2="119.9" y2="194.6"/>
<line class="st1" x1="108.7" y1="65.3" x2="81.7" y2="65.1"/>
<line class="st1" x1="51" y1="55" x2="27.6" y2="37.6"/>
<circle class="st3" cx="24.6" cy="92.9" r="9.9"/>
<circle class="st3" cx="9.3" cy="82.5" r="3.6"/>
<circle class="st3" cx="21.4" cy="14.6" r="3.6"/>
<circle class="st3" cx="113.3" cy="64.4" r="14.9"/>
<circle class="st3" cx="119.9" cy="194.6" r="14.9"/>
<circle class="st3" cx="25.3" cy="36" r="13"/>
<path class="st7" d="M25.3,36"/>
<line class="st2" x1="197.9" y1="221.1" x2="119.9" y2="194.6"/>
<circle class="st8" cx="119.9" cy="194.6" r="24.6"/>
<line class="st1" x1="74.7" y1="206" x2="114" y2="196.9"/>
<circle class="st3" cx="74.7" cy="206" r="9.9"/>
<circle class="st3" cx="78.4" cy="237.1" r="3.6"/>
</svg>
