<?xml version="1.0" encoding="utf-8"?>
<!-- Generator: Adobe Illustrator 22.0.1, SVG Export Plug-In . SVG Version: 6.00 Build 0)  -->
<svg version="1.1" id="Layer_1" xmlns="http://www.w3.org/2000/svg" xmlns:xlink="http://www.w3.org/1999/xlink" x="0px" y="0px"
	 viewBox="0 0 125.1 111.2" style="enable-background:new 0 0 125.1 111.2;" xml:space="preserve">
<style type="text/css">
	.st0{fill:none;stroke:#0047BA;stroke-miterlimit:10;stroke-dasharray:3;}
	.st1{fill:#00AFA0;}
	.st2{fill:none;stroke:#0047BA;stroke-miterlimit:10;}
</style>
<ellipse transform="matrix(9.762151e-03 -1 1 9.762151e-03 -3.8256 110.1851)" class="st0" cx="53.7" cy="57" rx="31.1" ry="30.9"/>
<ellipse transform="matrix(9.762151e-03 -1 1 9.762151e-03 -50.6456 92.8787)" class="st1" cx="21.6" cy="72" rx="4.5" ry="4.5"/>
<ellipse transform="matrix(9.762151e-03 -1 1 9.762151e-03 -75.0446 118.8093)" class="st1" cx="22.5" cy="97.3" rx="2.9" ry="2.9"/>
<ellipse transform="matrix(9.762151e-03 -1 1 9.762151e-03 -15.1381 159.3455)" class="st1" cx="72.9" cy="87.3" rx="5" ry="5"/>
<ellipse transform="matrix(9.762151e-03 -1 1 9.762151e-03 44.2619 123.0979)" class="st1" cx="84.3" cy="39.2" rx="2.9" ry="2.9"/>
<ellipse transform="matrix(9.762151e-03 -1 1 9.762151e-03 35.0889 65.9331)" class="st1" cx="50.8" cy="15.2" rx="2.9" ry="2.9"/>
<ellipse transform="matrix(9.762151e-03 -1 1 9.762151e-03 -33.2032 50.0284)" class="st1" cx="8.7" cy="41.8" rx="2.9" ry="2.9"/>
<ellipse transform="matrix(9.762151e-03 -1 1 9.762151e-03 -53.3519 139.1544)" class="st1" cx="43.6" cy="96.5" rx="5.3" ry="5.2"/>
<ellipse transform="matrix(9.762151e-03 -1 1 9.762151e-03 57.6636 82.4603)" class="st1" cx="70.5" cy="12.1" rx="5.3" ry="5.2"/>
<ellipse transform="matrix(9.762151e-03 -1 1 9.762151e-03 -5.8441 64.0167)" class="st1" cx="29.4" cy="35" rx="5.3" ry="5.2"/>
<ellipse transform="matrix(0.2955 -0.9553 0.9553 0.2955 -9.9668 89.3421)" class="st1" cx="55.6" cy="51.4" rx="3.1" ry="4.9"/>
<path class="st1" d="M46.1,85.3c-1,5.6-1.9,10.8-1.9,10.8l0.5,0c0,0,3.6-21.7,9.2-23.6c0.4-0.2,0.7-0.2,1-0.2c0.3,0,0.6,0,0.9-0.1
	c0,0,2,0.3,5.7,0.1c1.4,0,2.7,0.6,3.5,1.8l8.7,13.4l0.7-0.3l-8.5-13.8c-0.4-0.6,0-1.4,0.7-1.5c3.1-0.3,6.8-0.8,11-1.8
	c13.7-3,30.5-4.1,34.4-2.1c3.9,2,8.1-4.8,2.9-5.1c0,0-29.2-1.1-35.3-6.7c-4.3-4-14.7-13-14.9-13.2C61,40.3,64,32.2,64.1,32
	c2.8-9.5,6.8-23.2,6.8-23.2s-9.5,31.1-13.2,30.9c-0.3-0.1-0.6-0.1-0.9-0.2c-0.9-0.1-1.7-0.2-2.6-0.2c-2.5,0-4.9,0.5-7,1.5
	c-0.3,0.1-0.6,0.3-0.9,0.4c-3.5,2-6.6,0.4-9.3-2.3c-0.2-0.1-3.7-2.8-3.7-2.8l0,1.6c0,0,1.2,1,2.6,2.3C36,40.2,42,44,40,47.2
	c-0.1,0.3-0.3,0.6-0.5,0.9c-1.2,2.3-1.9,4.9-1.9,7.6c0,0.8,0,1.7,0.2,2.5c0,0.3,0.1,0.5,0.1,0.8c0.8,4.1-2.7,5.2-5.8,6.9
	c-0.2,0.1-0.4,0.2-0.6,0.4C26.8,69,21.6,72,21.6,72s5.5-2.5,10.4-4.7c0.2-0.1,0.4-0.2,0.7-0.3c3.3-2,7.6-2.4,10,0.7
	c0.2,0.2,0.5,0.4,0.7,0.7c0.9,0.8,2,1.5,3.1,2.1c0.2,0.2,0.4,0.3,0.6,0.5c0.2,0.2,0.4,0.4,0.6,0.7C47.8,71.8,46.1,85,46.1,85.3z
	 M46,56.6c-0.5-5.2,3.9-9.4,9-8.9c3.8,0.4,6.8,3.5,7.2,7.4c0.5,5.2-3.9,9.4-9,8.9C49.3,63.5,46.3,60.4,46,56.6z"/>
<ellipse transform="matrix(9.762151e-03 -1 1 9.762151e-03 -75.0446 118.8093)" class="st2" cx="22.5" cy="97.3" rx="4.9" ry="4.9"/>
</svg>
